<svg width="206" height="70" viewBox="0 0 206 70" fill="none" xmlns="http://www.w3.org/2000/svg">
<path fill-rule="evenodd" clip-rule="evenodd" d="M47.3344 14.4325C47.1443 14.4325 46.9306 14.4088 46.7406 14.3375C44.4135 13.5207 41.9631 13.111 39.4968 13.1263C36.9556 13.1263 34.5331 13.5538 32.2531 14.3375C31.3031 14.6463 30.3056 14.1713 29.9731 13.245C29.6406 12.3188 30.1394 11.2975 31.0656 10.965C33.7256 10.0388 36.5518 9.56375 39.4968 9.56375C42.4418 9.56375 45.2918 10.0388 47.9281 10.965C48.1857 10.9679 48.4397 11.0267 48.6724 11.1373C48.9052 11.2479 49.1111 11.4076 49.2761 11.6055C49.4411 11.8034 49.5612 12.0348 49.6281 12.2836C49.695 12.5324 49.7071 12.7928 49.6637 13.0468C49.6202 13.3007 49.5221 13.5422 49.3762 13.7546C49.2303 13.967 49.0401 14.1452 48.8187 14.277C48.5972 14.4087 48.3498 14.4908 48.0936 14.5177C47.8373 14.5445 47.5783 14.5155 47.3344 14.4325ZM22.7087 53.5749C22.2575 53.5749 21.8062 53.4086 21.45 53.0524C11.4987 43.1011 11.4987 26.9036 21.45 16.9524C22.1387 16.2636 23.2787 16.2636 23.9675 16.9524C24.6562 17.6411 24.6562 18.7811 23.9675 19.4699C15.3937 28.0436 15.3937 41.9849 23.9675 50.5349C24.6562 51.2236 24.6562 52.3636 23.9675 53.0524C23.6112 53.4086 23.16 53.5749 22.7087 53.5749ZM56.2963 53.5749C55.845 53.5749 55.3938 53.4086 55.0375 53.0524C54.7063 52.7172 54.5205 52.2649 54.5205 51.7936C54.5205 51.3224 54.7063 50.8701 55.0375 50.5349C63.6113 41.9611 63.6113 28.0199 55.0375 19.4699C54.7063 19.1347 54.5205 18.6824 54.5205 18.2111C54.5205 17.7399 54.7063 17.2876 55.0375 16.9524C55.7263 16.2636 56.8663 16.2636 57.555 16.9524C67.5063 26.9036 67.5063 43.1011 57.555 53.0524C57.1988 53.4086 56.7475 53.5749 56.2963 53.5749ZM31.0667 59.0161C33.7029 59.9423 36.5292 60.4173 39.4979 60.4411C42.4667 60.4411 45.2929 59.9423 47.9529 59.0161C48.8792 58.6836 49.3779 57.6623 49.0454 56.7361C48.7129 55.8098 47.6917 55.3348 46.7654 55.6436C44.5092 56.4273 42.0629 56.8548 39.5217 56.8548C36.9567 56.8548 34.5342 56.4273 32.2542 55.6436C31.3042 55.3111 30.3067 55.8098 29.9742 56.7361C29.8175 57.1833 29.8446 57.6744 30.0493 58.1018C30.2541 58.5291 30.6199 58.8579 31.0667 59.0161ZM31.7522 31.0338V35V39.0138C31.7522 43.9538 35.2434 45.9725 39.5184 43.5025L42.9622 41.5075L46.4059 39.5125C50.6809 37.0425 50.6809 33.005 46.4059 30.535L42.9622 28.54L39.5184 26.545C35.2434 24.075 31.7522 26.0938 31.7522 31.0338Z" fill="#236E57"/>
<path d="M87.798 41.5H90.624L92.982 33.184L95.358 41.5H98.184L101.712 28.9H99.102L96.69 38.242L94.044 28.9H91.92L89.292 38.242L86.88 28.9H84.27L87.798 41.5ZM109.1 32.5V33.562C108.452 32.752 107.48 32.248 106.166 32.248C103.772 32.248 101.792 34.318 101.792 37C101.792 39.682 103.772 41.752 106.166 41.752C107.48 41.752 108.452 41.248 109.1 40.438V41.5H111.422V32.5H109.1ZM106.598 39.538C105.176 39.538 104.114 38.512 104.114 37C104.114 35.488 105.176 34.462 106.598 34.462C108.038 34.462 109.1 35.488 109.1 37C109.1 38.512 108.038 39.538 106.598 39.538ZM118.964 34.732V32.5H116.93V29.98L114.608 30.682V32.5H113.042V34.732H114.608V38.476C114.608 40.906 115.706 41.86 118.964 41.5V39.394C117.632 39.466 116.93 39.448 116.93 38.476V34.732H118.964ZM124.892 41.752C126.656 41.752 128.186 40.816 128.96 39.412L126.944 38.26C126.584 38.998 125.81 39.448 124.874 39.448C123.488 39.448 122.462 38.422 122.462 37C122.462 35.56 123.488 34.534 124.874 34.534C125.792 34.534 126.566 35.002 126.926 35.74L128.924 34.57C128.186 33.184 126.656 32.248 124.892 32.248C122.156 32.248 120.14 34.318 120.14 37C120.14 39.682 122.156 41.752 124.892 41.752ZM135.48 32.248C134.274 32.248 133.338 32.698 132.798 33.508V28.9H130.476V41.5H132.798V36.64C132.798 35.074 133.644 34.408 134.778 34.408C135.822 34.408 136.56 35.038 136.56 36.262V41.5H138.882V35.974C138.882 33.58 137.388 32.248 135.48 32.248ZM149.162 41.5H152.24L156.488 28.9H153.77L150.71 38.584L147.632 28.9H144.932L149.162 41.5ZM158.683 31.42C159.475 31.42 160.123 30.772 160.123 29.998C160.123 29.224 159.475 28.558 158.683 28.558C157.909 28.558 157.261 29.224 157.261 29.998C157.261 30.772 157.909 31.42 158.683 31.42ZM157.531 41.5H159.853V32.5H157.531V41.5ZM169.088 28.9V33.562C168.44 32.734 167.486 32.248 166.172 32.248C163.76 32.248 161.78 34.318 161.78 37C161.78 39.682 163.76 41.752 166.172 41.752C167.486 41.752 168.44 41.266 169.088 40.438V41.5H171.41V28.9H169.088ZM166.604 39.538C165.164 39.538 164.102 38.512 164.102 37C164.102 35.488 165.164 34.462 166.604 34.462C168.026 34.462 169.088 35.488 169.088 37C169.088 38.512 168.026 39.538 166.604 39.538ZM175.784 37.954H182.57C182.624 37.648 182.66 37.342 182.66 37C182.66 34.354 180.77 32.248 178.106 32.248C175.28 32.248 173.354 34.318 173.354 37C173.354 39.682 175.262 41.752 178.286 41.752C180.014 41.752 181.364 41.05 182.21 39.826L180.338 38.746C179.942 39.268 179.222 39.646 178.322 39.646C177.098 39.646 176.108 39.142 175.784 37.954ZM175.748 36.154C176.018 35.002 176.864 34.336 178.106 34.336C179.078 34.336 180.05 34.858 180.338 36.154H175.748ZM188.783 41.752C191.429 41.752 193.553 39.682 193.553 37C193.553 34.318 191.429 32.248 188.783 32.248C186.137 32.248 184.031 34.318 184.031 37C184.031 39.682 186.137 41.752 188.783 41.752ZM188.783 39.484C187.415 39.484 186.353 38.458 186.353 37C186.353 35.542 187.415 34.516 188.783 34.516C190.169 34.516 191.231 35.542 191.231 37C191.231 38.458 190.169 39.484 188.783 39.484Z" fill="#0D0D0D"/>
</svg>
